<?xml version="1.0" encoding="UTF-8"?>
<svg xmlns="http://www.w3.org/2000/svg" xmlns:xlink="http://www.w3.org/1999/xlink" version="1.1" id="Layer_1" x="0px" y="0px" width="100%" viewBox="0 0 500 500" enable-background="new 0 0 500 500" xml:space="preserve" style="background: transparent;">

<path fill="#D8DBD8" opacity="1.000000" stroke="none" d=" M81.732986,442.246216   C77.681915,434.812225 72.853050,427.988434 70.319115,420.398468   C64.696892,403.558136 62.874882,386.032928 63.953289,368.243805   C64.214867,363.928864 64.172035,359.574951 63.938641,355.256866   C63.744217,351.659912 64.670448,350.601959 68.665588,349.740417   C86.341553,345.928864 103.937889,341.645813 121.368187,336.828400   C136.244843,332.716797 150.851471,327.630066 165.586914,323.004578   C170.719879,321.393311 171.033371,321.654083 171.031830,327.272552   C171.026245,347.593262 170.780869,367.917236 171.072067,388.233551   C171.258530,401.242371 175.111664,413.480591 179.843124,425.578491   C186.411423,442.372986 196.873611,455.807556 210.591736,467.472961   C218.158218,473.907135 226.641769,478.048523 235.109177,482.600433   C235.574570,482.850616 235.784683,483.575745 236.487885,484.653259   C234.703552,484.806000 233.484955,485.000488 232.266251,485.001190   C212.278519,485.012360 192.282883,485.340942 172.305603,484.880096   C157.090988,484.529144 142.129166,482.534058 127.503799,477.420258   C112.930710,472.324707 100.710747,464.110291 89.986954,453.415466   C86.833794,450.270874 84.633469,446.170868 81.732986,442.246216  z"/>
<path fill="#DFE0DD" opacity="1.000000" stroke="none" d=" M413.018402,47.128944   C412.136017,41.896160 414.269043,40.359241 418.851013,38.708538   C430.659515,34.454426 442.021149,28.963121 453.577667,24.004229   C456.211243,22.874166 458.929810,21.943617 461.575775,20.840820   C465.678131,19.130974 467.105347,19.879288 467.031769,24.215448   C466.756195,40.449272 466.254761,56.679592 466.032745,72.913895   C465.866516,85.070564 465.869507,97.233131 466.038116,109.389732   C466.184692,119.959892 466.646057,130.526184 467.016266,141.092499   C467.147797,144.847076 465.626343,147.199295 462.382751,149.417175   C448.309784,159.039902 434.503967,169.053284 420.591431,178.911102   C419.950592,179.365173 419.220093,179.694016 418.526276,180.071823   C412.708160,183.239990 411.966675,182.812363 411.976929,176.281372   C411.990265,167.787140 411.946625,159.292221 412.038086,150.798798   C412.336823,123.059830 412.700409,95.321556 413.004669,67.582642   C413.077698,60.922050 413.017548,54.259998 413.018402,47.128944  z"/>
<path fill="#DCDEDB" opacity="1.000000" stroke="none" d=" M329.125641,197.009048   C329.080505,195.931320 329.035370,194.853577 329.287476,193.100922   C329.427399,190.620392 329.270081,188.814789 329.112732,187.009171   C329.064758,169.643112 329.016785,152.277054 329.250488,134.244781   C329.398193,132.723267 329.264252,131.867966 329.130310,131.012665   C329.081299,129.933975 329.032288,128.855301 329.262207,127.173004   C329.398315,125.715973 329.255463,124.862541 329.112671,124.009117   C329.067169,120.638901 329.021637,117.268684 329.232117,113.295944   C329.714020,112.449417 329.865448,112.165680 329.942444,111.842209   C339.643646,107.555771 349.339050,103.256180 359.048279,98.988052   C364.443237,96.616447 369.831879,94.225868 375.281647,91.985535   C377.882324,90.916435 380.618805,90.177673 383.996552,89.055878   C383.996552,91.715500 383.996490,93.342827 383.996552,94.970146   C383.997833,127.293327 383.639069,159.623230 384.243500,191.935135   C384.402466,200.433975 381.772888,205.362488 374.531097,209.217178   C366.791016,213.337067 359.577820,218.440384 352.086090,223.035294   C345.811249,226.883850 339.546906,230.762497 333.121552,234.347534   C329.475494,236.381851 328.987244,233.779373 328.991943,230.905411   C329.009338,220.242203 328.996735,209.578949 329.188049,198.352097   C329.554871,197.465347 329.469879,197.205536 329.125641,197.009048  z"/>
<path fill="#DADCDA" opacity="1.000000" stroke="none" d=" M284.345032,165.186386   C289.888947,163.093475 295.086304,161.204727 301.018555,159.048920   C301.018555,161.880264 301.018463,163.677399 301.018585,165.474533   C301.020660,192.953842 300.980042,220.433304 301.074310,247.912292   C301.087372,251.717819 299.536530,253.495956 296.092377,255.179367   C284.340637,260.923309 272.891785,267.283478 261.246277,273.250122   C256.880646,275.486877 252.292679,277.289673 247.295380,279.518036   C247.183029,277.411774 247.041931,275.991547 247.041122,274.571228   C247.024246,245.093353 247.050888,215.615402 246.982605,186.137680   C246.974533,182.650345 247.153809,180.871109 251.592194,179.350784   C262.686523,175.550446 273.232483,170.149338 284.345032,165.186386  z"/>
<path fill="#4B8065" opacity="1.000000" stroke="none" d=" M162.974182,91.002640   C164.998566,98.961304 167.047333,106.913902 169.028061,114.883400   C169.457016,116.609314 169.641373,118.396019 169.553497,120.471954   C168.512115,119.403458 167.855621,118.017723 166.589127,115.344398   C165.286133,122.886757 160.092270,124.671585 154.714920,126.343132   C153.513062,126.716728 152.623596,128.007767 151.439560,128.542816   C147.953613,130.118057 144.439926,131.660416 140.839874,132.942688   C139.018051,133.591599 136.996765,133.797501 135.046799,133.933914   C133.387497,134.050018 131.516861,134.216980 130.059372,133.602844   C124.396950,131.216904 117.711121,132.969803 114.443573,138.190445   C111.967049,142.147247 110.078529,146.837402 103.879288,144.282532   C103.532730,144.139709 102.869926,144.396790 102.523041,144.676788   C96.504112,149.535110 91.029518,146.545776 85.848183,143.237091   C82.907227,141.359085 80.622734,140.424942 77.332481,142.666367   C73.717911,145.128723 69.625221,147.012787 65.150589,143.566589   C65.402390,135.399368 65.709488,127.700127 66.363022,120.050522   C68.546112,121.025726 70.382774,121.951317 72.297249,122.916122   C72.932579,121.816841 73.368011,121.284920 73.572723,120.675499   C76.044006,113.318542 81.409691,111.730133 88.217690,115.841362   C89.843109,116.822929 92.638466,116.578217 94.665398,116.036186   C98.919144,114.898674 102.989243,113.093758 107.192184,111.741379   C111.369843,110.397133 115.893990,109.831505 119.770622,107.919601   C125.625198,105.032188 131.405334,103.533546 137.890427,104.857880   C139.221252,105.129646 141.050140,104.852905 142.139999,104.095703   C147.627472,100.283180 152.886322,96.141815 158.369675,92.322983   C159.609619,91.459442 161.424149,91.420929 162.974182,91.002640  z"/>
<path fill="#467B61" opacity="1.000000" stroke="none" d=" M65.205902,144.034576   C69.625221,147.012787 73.717911,145.128723 77.332481,142.666367   C80.622734,140.424942 82.907227,141.359085 85.848183,143.237091   C91.029518,146.545776 96.504112,149.535110 102.523041,144.676788   C102.869926,144.396790 103.532730,144.139709 103.879288,144.282532   C110.078529,146.837402 111.967049,142.147247 114.443573,138.190445   C117.711121,132.969803 124.396950,131.216904 130.059372,133.602844   C131.516861,134.216980 133.387497,134.050018 135.046799,133.933914   C136.996765,133.797501 139.018051,133.591599 140.839874,132.942688   C144.439926,131.660416 147.953613,130.118057 151.439560,128.542816   C152.623596,128.007767 153.513062,126.716728 154.714920,126.343132   C160.092270,124.671585 165.286133,122.886757 166.589127,115.344398   C167.855621,118.017723 168.512115,119.403458 169.498657,120.886581   C169.903366,122.369728 169.978027,123.755470 170.040848,126.023415   C169.882858,132.219360 169.736694,137.533112 169.161148,142.940216   C168.162491,143.940308 167.042709,144.898071 167.121185,145.744781   C167.427368,149.048691 166.306015,151.031937 163.067032,152.115692   C161.987473,152.476929 161.403641,154.120010 160.381546,154.899612   C158.864319,156.056839 157.199646,157.041550 155.522614,157.962967   C153.577393,159.031769 151.255966,159.605911 149.614487,161.002167   C144.491196,165.360062 142.218933,165.729065 135.926712,162.708298   C134.972977,162.250458 133.395325,161.919861 132.649796,162.390808   C127.775894,165.469757 120.903961,161.165207 116.707138,166.774338   C116.363197,167.234024 114.608932,167.145691 113.856834,166.711349   C108.551384,163.647430 103.994789,166.199478 99.276230,168.296005   C97.718628,168.988068 95.248360,169.978378 94.300659,169.296417   C89.365685,165.745102 85.389473,166.716507 81.516586,170.834488   C80.909538,171.479935 79.663246,171.473785 78.866539,172.001450   C77.056877,173.200058 75.323532,174.517792 73.596954,175.836563   C72.388397,176.759674 71.242317,177.764557 70.068329,178.732910   C69.379555,177.214767 68.165672,175.720047 68.096672,174.174240   C67.852135,168.695618 68.167686,163.190399 67.870598,157.716965   C67.801682,156.447296 66.148544,155.263611 65.179886,153.586380   C65.158905,150.099792 65.182404,147.067184 65.205902,144.034576  z"/>
<path fill="#589472" opacity="1.000000" stroke="none" d=" M295.963989,265.890015   C299.051239,263.928375 302.138489,261.966736 305.663757,260.285309   C310.697327,263.652802 315.167572,266.954620 319.938599,269.741425   C322.518097,271.248169 325.649994,272.807922 328.464111,272.691132   C333.246979,272.492645 338.598999,273.481934 342.538147,269.106537   C343.182343,268.391022 345.020935,268.684143 346.312439,268.630249   C350.587341,268.451782 354.898193,268.612885 359.132507,268.112610   C364.745483,267.449432 372.620697,271.705688 375.075562,277.201111   C369.416260,280.988342 363.911072,285.035431 358.062805,288.504059   C348.436829,294.213257 338.588745,299.547974 328.432434,304.705688   C325.498535,301.377747 323.519379,296.835480 320.325897,295.695770   C312.264038,292.818542 303.126434,295.060333 294.951599,291.009888   C290.975586,289.039825 285.728394,288.384979 282.536560,292.509674   C279.080322,296.976074 275.259613,297.767334 270.323303,296.280731   C265.573212,294.850159 261.539612,295.215637 257.859497,299.394287   C254.927094,302.723938 246.407471,302.871063 244.035385,300.432251   C242.019241,298.359375 240.039459,296.251160 238.043579,294.158569   C252.126953,287.186920 266.210327,280.215240 280.848541,273.312622   C282.965332,273.489868 284.833099,273.082306 286.036255,273.795685   C291.235413,276.878357 294.686096,273.124573 298.875336,271.554260   C297.713196,269.293243 296.838593,267.591614 295.963989,265.890015  M370.490509,274.550934   C370.490509,274.550934 370.456421,274.481476 370.490509,274.550934  z"/>
<path fill="#295743" opacity="1.000000" stroke="none" d=" M330.010162,483.983002   C329.200012,483.057098 328.389862,482.131195 327.311829,480.698120   C330.611176,476.146942 331.072754,472.067413 327.933350,467.379150   C327.272034,466.391602 328.637848,464.046600 329.069611,462.327087   C330.067841,463.353394 331.433319,464.210938 331.996704,465.437042   C333.829590,469.425842 335.358795,469.504517 338.953796,466.812653   C342.181000,464.396210 344.894897,459.537231 350.326843,462.793243   C350.868439,463.117889 352.197479,462.915375 352.662628,462.454468   C355.843842,459.302521 359.520874,461.071930 363.035461,461.212769   C368.322327,461.424622 373.617554,461.512360 378.892853,461.884949   C380.877106,462.025116 383.226715,462.274597 384.702362,463.400970   C390.421234,467.766205 393.231323,468.166382 399.494324,465.070129   C402.971008,463.351410 406.237915,463.055389 409.314606,466.502441   C410.454193,467.779205 413.412231,468.749054 414.869659,468.169800   C418.662201,466.662445 422.105621,464.257050 425.634583,462.121124   C426.441803,461.632507 427.465820,460.885712 427.649536,460.087372   C428.569183,456.090607 429.242523,452.037201 430.191772,447.758972   C431.280396,446.998047 432.179718,446.481873 433.079041,445.965698   C435.360229,448.078613 437.641418,450.191467 439.720703,452.626526   C438.483215,453.579071 436.932343,453.972626 436.512543,454.886017   C435.427765,457.246338 434.921753,459.864624 434.038635,462.327545   C432.750793,465.919250 432.192749,469.266571 436.486298,472.067017   C437.635101,470.481567 438.712769,469.109924 439.664795,467.656036   C441.559692,464.762085 443.385529,461.822968 445.239929,458.902527   C450.526306,465.154938 455.815094,471.405304 461.097534,477.661072   C462.669952,479.523254 464.224518,481.400452 466.535553,484.166290   C463.923920,484.505768 462.296143,484.717346 460.007751,484.575745   C455.191925,484.133453 451.036743,483.968323 446.881500,483.967163   C407.924377,483.956421 368.967285,483.973785 330.010162,483.983002  z"/>
<path fill="#6EB086" opacity="1.000000" stroke="none" d=" M456.877686,163.945862   C458.086700,162.883224 459.219940,161.713943 460.524963,160.786362   C461.979645,159.752426 463.590576,158.938324 465.133484,158.028534   C465.768250,159.935059 467.041443,161.877075 466.937775,163.742584   C466.038513,179.926163 463.551208,195.822571 455.832855,210.341278   C452.940643,215.781693 449.123322,220.730301 445.235840,225.814529   C443.605652,225.097870 441.440399,224.372833 441.489136,223.856903   C441.944489,219.035339 438.539734,217.824295 435.134521,217.147720   C431.156403,216.357315 430.152771,219.629715 429.300018,222.569031   C428.256317,226.166824 426.464661,226.983139 423.695038,224.197586   C420.016388,220.497742 416.215149,219.261459 411.489136,222.567719   C409.658539,223.848373 407.257385,224.909210 405.086029,224.968597   C401.747314,225.059891 398.190338,224.687164 395.133972,223.479095   C394.074402,223.060287 393.941315,219.575119 393.899475,217.480225   C393.842468,214.626953 394.278290,211.763824 394.502777,208.904907   C394.000641,208.654663 393.498474,208.404404 392.996307,208.154144   C390.911804,211.849670 388.392334,215.373444 386.848694,219.282547   C384.736359,224.631683 379.638336,225.988953 375.509583,221.967545   C374.711792,221.190475 373.082001,221.267639 371.835999,220.950745   C382.260254,213.936829 392.736084,206.998138 403.096954,199.891800   C419.865387,188.390640 436.558258,176.779373 453.615967,165.482697   C452.945404,173.059113 459.056671,176.164322 462.521027,181.668182   C465.505402,169.954437 464.285980,166.491028 456.877686,163.945862  z"/>
<path fill="#4B8065" opacity="1.000000" stroke="none" d=" M226.953049,361.188782   C220.385559,353.358978 213.818069,345.529175 207.261871,337.091248   C213.893311,331.316620 220.222931,325.817963 229.499329,325.872925   C233.903488,325.899048 238.781876,325.584839 242.619919,323.723053   C249.207550,320.527527 255.604446,320.515747 262.400848,321.837219   C265.114136,322.364777 267.452148,322.274445 268.831787,318.882812   C269.352417,317.602936 272.213440,316.374115 273.809692,316.589386   C280.565826,317.500549 286.957458,320.906982 294.174286,318.514801   C296.852173,317.627167 300.004181,318.116943 302.940979,318.090149   C304.070435,318.079803 305.895782,317.997559 306.226593,318.597443   C309.590576,324.697388 315.664062,323.741211 320.762054,323.710388   C322.912109,322.772583 325.062164,321.834808 327.212219,320.897034   C329.399689,323.354614 331.587189,325.812195 333.702820,328.850952   C330.219391,330.927704 326.458466,331.970825 325.580933,336.462921   C325.470123,337.030334 324.329224,337.770844 323.643555,337.794556   C315.376678,338.080505 306.649231,340.019989 298.940796,338.035858   C286.817474,334.915375 275.291748,338.451904 263.521759,338.145813   C262.926300,338.130310 262.332062,338.680023 261.712311,338.894623   C252.257675,342.168030 244.427963,349.053284 234.442291,351.170380   C233.712784,351.325043 232.917435,351.896088 232.466354,352.505646   C230.903061,354.618225 229.478363,356.833344 227.764679,359.215027   C227.336655,360.010010 227.144852,360.599396 226.953049,361.188782  z"/>
<path fill="#2C5B46" opacity="1.000000" stroke="none" d=" M169.972580,312.235687   C160.230133,315.469604 150.524612,318.820679 140.735596,321.906891   C129.302673,325.511353 117.855011,329.095215 106.302330,332.284454   C98.557381,334.422546 90.618637,335.858612 82.306252,337.401154   C80.100555,335.499390 78.538185,333.543549 76.570343,332.167664   C72.904602,329.604675 69.002884,327.379181 65.142502,324.616211   C65.124260,323.153687 65.162910,322.088104 65.563034,321.030151   C67.770767,320.683624 70.742004,320.901093 71.263847,319.874023   C73.265572,315.934418 74.306526,311.519043 76.086502,307.447540   C76.697662,306.049561 78.288315,304.437988 79.671600,304.171844   C81.675484,303.786285 83.953201,304.961060 86.012566,304.692291   C88.630554,304.350616 91.804390,303.943451 93.578041,302.306824   C98.039513,298.190002 99.626335,297.826782 105.024269,301.322754   C108.222450,303.394073 111.305565,306.035522 115.716904,303.216888   C117.505470,302.074036 120.199348,302.203857 122.501411,302.043274   C125.810806,301.812469 129.107498,301.523834 131.165054,305.321503   C131.584000,306.094757 134.207977,305.931152 135.773239,305.775330   C139.842438,305.370178 143.903687,304.821564 147.936813,304.144012   C150.002747,303.796875 152.057480,303.196777 154.016647,302.447845   C156.436707,301.522705 159.000000,299.080292 161.063416,299.491486   C165.992172,300.473663 165.576309,297.824097 166.112259,294.604889   C166.961609,289.503296 168.522293,284.520142 169.868683,279.918304   C169.961105,290.978394 169.966843,301.607025 169.972580,312.235687  z"/>
<path fill="#3E7158" opacity="1.000000" stroke="none" d=" M247.960861,386.134064   C247.029114,384.969482 246.097351,383.804901 245.301636,382.311890   C245.956055,381.655396 246.474426,381.327332 247.251068,380.792084   C250.559448,377.413635 253.461685,374.078217 256.722626,371.140991   C258.332520,369.690857 260.800354,369.227448 262.536591,367.876282   C266.297546,364.949554 269.870972,363.295227 274.791840,365.646973   C278.258759,367.303833 282.527283,369.131500 286.016357,368.511353   C293.411285,367.197021 300.252289,366.960632 307.144745,370.369080   C308.917267,371.245605 311.638123,371.450897 313.456238,370.751099   C318.575226,368.780731 323.389679,368.928009 328.387238,370.952789   C331.692902,372.292084 335.130219,373.315582 338.538727,374.384369   C339.248291,374.606873 340.406952,374.739746 340.820282,374.347137   C343.579498,371.726318 346.074738,371.102295 348.833832,374.431091   C349.249603,374.932709 350.965576,374.489838 352.040833,374.281372   C353.789185,373.942413 355.486633,373.332306 357.238342,373.021149   C361.597565,372.246887 365.975220,371.576599 370.345490,370.864563   C375.513275,377.020172 380.681091,383.175781 385.764252,389.765167   C385.451843,390.464783 385.224091,390.730652 384.581207,391.012939   C376.543182,392.953339 369.497070,391.699097 362.850769,387.479187   C360.076050,385.717438 357.087524,383.673889 354.587311,388.323975   C354.032593,389.355652 351.798035,389.699432 350.270081,389.946411   C347.342590,390.419678 344.366150,390.586548 341.411865,390.898010   C334.485535,391.628235 327.025635,393.029694 321.481415,387.955505   C316.973083,383.829346 312.940491,384.952911 307.963867,385.600037   C302.823486,386.268463 297.113007,387.821808 292.570343,382.739349   C291.611725,381.666870 287.276337,381.641754 286.632019,382.587952   C283.182465,387.653748 276.909882,387.359833 272.753510,390.673309   C269.974121,392.889099 267.847015,395.923096 265.428009,398.590942   C265.699371,398.987488 265.970703,399.384003 266.242065,399.780548   C264.828430,399.520386 263.414825,399.260193 261.751526,398.998535   C261.501831,398.997070 261.002441,398.995117 261.003601,398.598877   C262.094879,394.935303 263.346436,391.709381 264.198883,388.381165   C264.561340,386.965942 264.530426,384.281219 263.904724,384.018921   C262.495117,383.428101 260.507812,383.684845 258.937347,384.176941   C257.688812,384.568115 256.709839,385.819733 255.605331,386.694000   C252.293976,382.242371 251.148193,382.199982 247.960861,386.134064  z"/>
<path fill="#2C5B46" opacity="1.000000" stroke="none" d=" M430.002441,448.003693   C429.242523,452.037201 428.569183,456.090607 427.649536,460.087372   C427.465820,460.885712 426.441803,461.632507 425.634583,462.121124   C422.105621,464.257050 418.662201,466.662445 414.869659,468.169800   C413.412231,468.749054 410.454193,467.779205 409.314606,466.502441   C406.237915,463.055389 402.971008,463.351410 399.494324,465.070129   C393.231323,468.166382 390.421234,467.766205 384.702362,463.400970   C383.226715,462.274597 380.877106,462.025116 378.892853,461.884949   C373.617554,461.512360 368.322327,461.424622 363.035461,461.212769   C359.520874,461.071930 355.843842,459.302521 352.662628,462.454468   C352.197479,462.915375 350.868439,463.117889 350.326843,462.793243   C344.894897,459.537231 342.181000,464.396210 338.953796,466.812653   C335.358795,469.504517 333.829590,469.425842 331.996704,465.437042   C331.433319,464.210938 330.067841,463.353394 329.069611,462.327087   C328.637848,464.046600 327.272034,466.391602 327.933350,467.379150   C331.072754,472.067413 330.611176,476.146942 327.021606,480.567322   C319.682281,471.872681 312.365265,462.801636 305.335724,453.227173   C308.995056,450.739044 312.315125,448.656982 315.765411,446.819580   C317.072510,446.123474 318.880432,445.331635 320.118652,445.707642   C329.270996,448.486877 337.419037,446.791901 345.792786,442.252686   C349.084351,440.468445 355.220154,440.413940 358.220551,442.379974   C363.603882,445.907501 368.260651,448.739807 375.003387,447.130646   C378.962219,446.185883 383.448700,447.249878 387.290649,446.076691   C390.909149,444.971741 393.718903,444.882965 396.499054,447.310852   C400.138062,450.488739 403.784546,450.487335 407.959991,448.155029   C409.817413,447.117554 413.288300,446.072144 414.341614,446.981781   C419.520477,451.454163 424.425842,452.852020 430.002441,448.003693  z"/>
<path fill="#30604A" opacity="1.000000" stroke="none" d=" M430.191772,447.758972   C424.425842,452.852020 419.520477,451.454163 414.341614,446.981781   C413.288300,446.072144 409.817413,447.117554 407.959991,448.155029   C403.784546,450.487335 400.138062,450.488739 396.499054,447.310852   C393.718903,444.882965 390.909149,444.971741 387.290649,446.076691   C383.448700,447.249878 378.962219,446.185883 375.003387,447.130646   C368.260651,448.739807 363.603882,445.907501 358.220551,442.379974   C355.220154,440.413940 349.084351,440.468445 345.792786,442.252686   C337.419037,446.791901 329.270996,448.486877 320.118652,445.707642   C318.880432,445.331635 317.072510,446.123474 315.765411,446.819580   C312.315125,448.656982 308.995056,450.739044 305.288025,452.874695   C304.633209,452.932709 304.376160,452.751068 304.080811,451.905151   C302.986145,449.551453 301.992462,447.773285 300.999634,445.746338   C301.000488,445.497559 301.000000,445.000000 301.378296,444.996582   C302.754150,444.424652 303.751678,443.856171 304.749237,443.287689   C304.286011,442.670166 303.822754,442.052643 303.359497,441.435181   C302.573029,442.623444 301.786530,443.811737 300.746643,444.999084   C300.324310,444.999146 300.155365,445.000183 299.780884,444.878204   C299.319305,444.551910 299.127533,444.299774 298.978638,443.609497   C297.253174,442.497192 295.549133,441.774170 293.845062,441.051117   C292.654083,439.580688 291.463074,438.110291 290.130981,435.945740   C289.462158,431.840210 291.128174,429.493103 294.247650,429.044312   C296.581757,428.708496 299.182098,429.454559 301.518829,430.183807   C303.004486,430.647430 304.655518,433.052734 305.494965,432.721069   C311.748535,430.250183 319.507660,435.739410 324.993591,428.916107   C325.726135,428.004944 328.384277,428.405670 330.114441,428.573242   C338.274689,429.363770 346.140045,431.316284 354.539276,427.726593   C359.434265,425.634613 365.618469,425.070068 371.429565,428.001068   C375.389496,429.998413 380.317993,431.969879 384.428558,431.359833   C391.825409,430.262054 398.087555,430.056763 402.569550,437.063019   C402.657196,437.199982 402.817017,437.288910 402.917023,437.420135   C405.401001,440.679901 408.031708,440.340271 411.042664,438.027344   C414.293945,435.529724 417.750244,433.298920 421.117096,430.951721   C425.078369,435.721283 429.039673,440.490845 433.039978,445.613037   C432.179718,446.481873 431.280396,446.998047 430.191772,447.758972  z"/>
<path fill="#508669" opacity="1.000000" stroke="none" d=" M162.930756,90.648972   C161.424149,91.420929 159.609619,91.459442 158.369675,92.322983   C152.886322,96.141815 147.627472,100.283180 142.139999,104.095703   C141.050140,104.852905 139.221252,105.129646 137.890427,104.857880   C131.405334,103.533546 125.625198,105.032188 119.770622,107.919601   C115.893990,109.831505 111.369843,110.397133 107.192184,111.741379   C102.989243,113.093758 98.919144,114.898674 94.665398,116.036186   C92.638466,116.578217 89.843109,116.822929 88.217690,115.841362   C81.409691,111.730133 76.044006,113.318542 73.572723,120.675499   C73.368011,121.284920 72.932579,121.816841 72.297249,122.916122   C70.382774,121.951317 68.546112,121.025726 66.129318,120.039536   C65.549194,119.978920 65.081963,119.962219 65.061966,119.497612   C65.079887,111.359772 65.117813,103.686539 65.507416,96.025116   C67.320992,97.495895 68.929070,98.837257 70.216080,100.436928   C73.474174,104.486519 81.362946,104.250900 83.561058,99.588272   C84.841248,96.872711 84.883224,93.573418 85.460304,90.648392   C88.834557,91.330971 92.777855,92.199577 96.753609,92.878120   C97.638290,93.029106 99.345505,92.717392 99.475998,92.269592   C101.129509,86.595634 106.103889,87.606529 109.982040,87.335464   C115.656471,86.938828 121.392288,87.477257 127.102051,87.482147   C128.273743,87.483154 129.888947,87.271881 130.547791,86.509041   C135.800430,80.427216 140.871811,74.188843 146.196518,67.766037   C146.964615,67.344482 147.534958,67.155373 148.105316,66.966270   C153.032654,74.742622 157.959991,82.518967 162.930756,90.648972  z"/>
<path fill="#33644E" opacity="1.000000" stroke="none" d=" M420.953979,430.656006   C417.750244,433.298920 414.293945,435.529724 411.042664,438.027344   C408.031708,440.340271 405.401001,440.679901 402.917023,437.420135   C402.817017,437.288910 402.657196,437.199982 402.569550,437.063019   C398.087555,430.056763 391.825409,430.262054 384.428558,431.359833   C380.317993,431.969879 375.389496,429.998413 371.429565,428.001068   C365.618469,425.070068 359.434265,425.634613 354.539276,427.726593   C346.140045,431.316284 338.274689,429.363770 330.114441,428.573242   C328.384277,428.405670 325.726135,428.004944 324.993591,428.916107   C319.507660,435.739410 311.748535,430.250183 305.494965,432.721069   C304.655518,433.052734 303.004486,430.647430 301.518829,430.183807   C299.182098,429.454559 296.581757,428.708496 294.247650,429.044312   C291.128174,429.493103 289.462158,431.840210 289.982422,435.661499   C287.740540,433.601044 285.506073,431.130676 283.160217,428.062073   C283.365082,426.975006 283.681305,426.486206 284.390869,425.994873   C285.828796,425.409424 287.625336,424.992004 287.795929,424.216766   C288.891937,419.236206 292.308594,419.862579 296.171448,419.680603   C301.476746,419.430664 306.715698,417.915283 312.000153,417.046051   C319.135986,415.872345 326.256470,414.405487 333.444916,413.825806   C337.805328,413.474213 342.287384,414.511414 346.702942,415.026337   C348.303070,415.212921 349.856476,415.771759 351.452576,416.026703   C354.890228,416.575714 358.656219,418.175842 361.729767,417.326416   C371.755005,414.555634 381.011841,415.757599 389.971710,420.618500   C394.680634,423.173157 403.932983,419.708740 405.998260,414.524750   C410.929138,419.803253 415.860016,425.081757 420.953979,430.656006  z"/>
<path fill="#538A6C" opacity="1.000000" stroke="none" d=" M145.998779,67.998474   C140.871811,74.188843 135.800430,80.427216 130.547791,86.509041   C129.888947,87.271881 128.273743,87.483154 127.102051,87.482147   C121.392288,87.477257 115.656471,86.938828 109.982040,87.335464   C106.103889,87.606529 101.129509,86.595634 99.475998,92.269592   C99.345505,92.717392 97.638290,93.029106 96.753609,92.878120   C92.777855,92.199577 88.834557,91.330971 85.460304,90.648392   C84.883224,93.573418 84.841248,96.872711 83.561058,99.588272   C81.362946,104.250900 73.474174,104.486519 70.216080,100.436928   C68.929070,98.837257 67.320992,97.495895 65.460754,95.556702   C65.096954,86.058380 65.131508,77.040268 65.524193,68.033852   C70.552773,74.127907 78.099518,69.510712 83.564850,72.742241   C83.878738,72.927834 84.774590,72.349358 85.275269,71.964668   C90.159203,68.212097 90.478897,68.354134 92.084579,74.411575   C92.324165,75.315414 93.326279,76.017136 93.975632,76.812355   C94.639977,76.207367 95.274033,75.564339 95.975296,75.005692   C97.245300,73.993965 98.518341,72.249931 99.855225,72.186638   C105.417381,71.923294 105.426285,72.111397 104.938690,66.374992   C107.276627,67.797951 109.631859,68.537285 110.907349,70.137337   C114.802750,75.023933 115.497368,75.090836 118.622948,69.796486   C122.742355,62.818718 126.949379,55.892666 131.118729,48.944374   C132.018112,49.708138 132.917480,50.471901 134.049179,51.756187   C134.560562,52.504543 134.839645,52.732380 135.118713,52.960217   C135.118713,52.960217 135.044144,52.936932 135.041321,53.343109   C134.561569,56.123745 133.781433,58.486511 133.689301,60.875809   C133.588394,63.491741 133.268692,66.831299 134.660934,68.532516   C135.704803,69.808044 139.313354,69.138275 141.769165,69.045807   C143.190155,68.992294 144.589630,68.366646 145.998779,67.998474  z"/>
<path fill="#508669" opacity="1.000000" stroke="none" d=" M327.050964,320.597778   C325.062164,321.834808 322.912109,322.772583 320.762054,323.710388   C315.664062,323.741211 309.590576,324.697388 306.226593,318.597443   C305.895782,317.997559 304.070435,318.079803 302.940979,318.090149   C300.004181,318.116943 296.852173,317.627167 294.174286,318.514801   C286.957458,320.906982 280.565826,317.500549 273.809692,316.589386   C272.213440,316.374115 269.352417,317.602936 268.831787,318.882812   C267.452148,322.274445 265.114136,322.364777 262.400848,321.837219   C255.604446,320.515747 249.207550,320.527527 242.619919,323.723053   C238.781876,325.584839 233.903488,325.899048 229.499329,325.872925   C220.222931,325.817963 213.893311,331.316620 207.113297,336.790039   C203.758850,333.663757 200.542892,330.250092 197.376846,326.790802   C195.121689,324.326752 192.951996,321.784729 190.710205,319.308258   C188.692169,317.078949 187.232346,315.141632 191.524857,313.664459   C195.455063,312.311951 199.240738,310.539368 203.794983,308.931915   C204.989182,308.562012 205.478516,308.212067 205.967850,307.862152   C205.967850,307.862152 205.959641,307.939026 206.321442,307.952576   C209.970779,309.991241 213.467422,311.748474 216.492661,314.109680   C220.237457,317.032471 227.327927,318.718079 230.879959,315.867706   C237.667282,310.421112 244.958679,311.485718 252.557816,312.608612   C257.092072,313.278625 261.483154,313.736572 265.754059,310.364624   C269.802002,307.168732 275.359497,307.478943 279.723724,309.449554   C284.616180,311.658722 289.498779,311.814117 292.858002,308.744843   C298.202057,303.862091 303.249878,305.152527 308.989929,306.705658   C311.580505,307.406677 314.481323,306.879059 317.195984,307.245392   C318.225403,307.384308 319.127167,308.469299 320.087097,309.123077   C320.087097,309.123077 320.043579,309.039124 319.799744,309.076660   C319.216400,309.386169 318.876862,309.658112 318.537323,309.930054   C318.973450,310.283661 319.409576,310.637299 319.845703,310.990906   C322.193726,314.093445 324.541718,317.195984 327.050964,320.597778  z"/>
<path fill="#518C6C" opacity="1.000000" stroke="none" d=" M320.441162,309.079193   C319.127167,308.469299 318.225403,307.384308 317.195984,307.245392   C314.481323,306.879059 311.580505,307.406677 308.989929,306.705658   C303.249878,305.152527 298.202057,303.862091 292.858002,308.744843   C289.498779,311.814117 284.616180,311.658722 279.723724,309.449554   C275.359497,307.478943 269.802002,307.168732 265.754059,310.364624   C261.483154,313.736572 257.092072,313.278625 252.557816,312.608612   C244.958679,311.485718 237.667282,310.421112 230.879959,315.867706   C227.327927,318.718079 220.237457,317.032471 216.492661,314.109680   C213.467422,311.748474 209.970779,309.991241 206.284958,307.939819   C213.318375,304.729889 220.750076,301.546234 228.887726,298.198212   C230.698471,297.300873 231.803299,296.567871 232.908127,295.834869   C232.908127,295.834869 232.958405,295.910339 233.254425,295.936768   C234.358719,295.675781 235.166992,295.388367 235.975250,295.100952   C236.469574,294.796509 236.963913,294.492065 237.750916,294.173096   C240.039459,296.251160 242.019241,298.359375 244.035385,300.432251   C246.407471,302.871063 254.927094,302.723938 257.859497,299.394287   C261.539612,295.215637 265.573212,294.850159 270.323303,296.280731   C275.259613,297.767334 279.080322,296.976074 282.536560,292.509674   C285.728394,288.384979 290.975586,289.039825 294.951599,291.009888   C303.126434,295.060333 312.264038,292.818542 320.325897,295.695770   C323.519379,296.835480 325.498535,301.377747 328.072205,304.744629   C328.113800,305.118439 328.058289,305.079346 327.873993,305.144806   C327.411255,305.354492 327.194214,305.562683 327.038544,305.834839   C324.957428,306.901672 322.876312,307.968506 320.441162,309.079193  z"/>
<path fill="#5F9D78" opacity="1.000000" stroke="none" d=" M375.435089,277.123108   C372.620697,271.705688 364.745483,267.449432 359.132507,268.112610   C354.898193,268.612885 350.587341,268.451782 346.312439,268.630249   C345.020935,268.684143 343.182343,268.391022 342.538147,269.106537   C338.598999,273.481934 333.246979,272.492645 328.464111,272.691132   C325.649994,272.807922 322.518097,271.248169 319.938599,269.741425   C315.167572,266.954620 310.697327,263.652802 306.029419,260.225067   C316.086578,254.003250 326.216125,248.121887 336.933899,242.439697   C340.313782,243.857590 341.789856,245.640793 340.567352,248.893875   C339.474579,251.801834 341.056183,252.954590 343.732849,252.953751   C345.209320,252.953293 346.704437,252.721481 348.158783,252.431641   C354.041168,251.259445 359.750427,250.286743 365.612823,253.215393   C369.824341,255.319336 374.371307,255.246216 379.157410,253.677841   C382.208862,252.677902 386.085510,252.957718 389.260620,253.847153   C394.809174,255.401428 395.238220,260.311005 395.074615,265.190033   C388.647949,269.141724 382.221283,273.093414 375.435089,277.123108  z"/>
<path fill="#578E6F" opacity="1.000000" stroke="none" d=" M130.983765,48.622261   C126.949379,55.892666 122.742355,62.818718 118.622948,69.796486   C115.497368,75.090836 114.802750,75.023933 110.907349,70.137337   C109.631859,68.537285 107.276627,67.797951 104.938690,66.374992   C105.426285,72.111397 105.417381,71.923294 99.855225,72.186638   C98.518341,72.249931 97.245300,73.993965 95.975296,75.005692   C95.274033,75.564339 94.639977,76.207367 93.975632,76.812355   C93.326279,76.017136 92.324165,75.315414 92.084579,74.411575   C90.478897,68.354134 90.159203,68.212097 85.275269,71.964668   C84.774590,72.349358 83.878738,72.927834 83.564850,72.742241   C78.099518,69.510712 70.552773,74.127907 65.475151,67.564651   C65.100395,58.065895 65.132805,49.048035 65.550217,40.050236   C66.629364,41.181915 67.758621,42.226948 67.940720,43.416924   C68.648422,48.041580 69.055260,52.712280 69.511948,56.808693   C72.634369,55.785191 75.408585,54.948505 78.126755,53.958027   C79.800789,53.348026 81.439865,52.596558 83.006935,51.746853   C88.262939,48.896919 93.271080,44.206253 98.767670,43.558178   C104.708954,42.857666 108.979767,39.684288 114.072563,37.864506   C119.664635,41.343052 125.256714,44.821598 130.983765,48.622261  z"/>
<path fill="#376953" opacity="1.000000" stroke="none" d=" M261.002441,398.995117   C261.002441,398.995117 261.501831,398.997070 261.798767,399.339783   C263.688904,401.410553 265.282104,403.138580 266.980438,404.980652   C274.682953,393.240479 274.666687,393.283600 287.277679,398.036591   C288.403076,398.460724 290.398834,398.355042 291.177399,397.626556   C295.688751,393.405243 300.328949,395.294464 305.154541,396.717957   C310.591370,398.321777 316.100983,400.558319 321.634094,400.728546   C328.189270,400.930267 334.805817,399.238068 341.388550,398.315247   C342.191620,398.202698 342.932037,397.697754 343.732635,397.502441   C345.931396,396.966187 348.184296,395.949524 350.348969,396.097839   C359.656616,396.735504 368.947144,397.656647 378.229889,398.610992   C383.060028,399.107574 386.357727,395.521729 384.996338,390.996521   C385.224091,390.730652 385.451843,390.464783 385.913025,390.073120   C392.732941,397.448242 399.327271,404.942352 405.876160,412.475891   C406.129425,412.767242 405.946442,413.437775 405.448547,414.435181   C396.337189,417.932465 394.073456,417.640594 390.733215,413.108246   C386.059021,406.765839 386.070557,406.600372 378.111908,406.045197   C375.342834,405.852051 372.501129,406.700165 369.692596,407.072723   C366.405273,407.848206 363.048004,407.938324 359.697418,407.826935   C354.737183,407.662018 349.688446,409.338684 345.052765,405.145966   C343.465088,403.709991 339.279877,404.978394 336.315552,405.313446   C335.104340,405.450317 334.014832,406.465637 332.816895,406.950134   C325.433746,409.936279 318.122284,408.510162 311.206573,405.721619   C306.472839,403.812866 304.069122,404.785767 302.673431,409.467010   C301.740631,412.595795 299.583496,413.506287 296.463562,412.694336   C294.877014,412.281433 293.203918,412.195129 291.567383,411.981232   C287.043060,411.390015 282.074707,411.788177 278.098297,409.989868   C272.446136,407.433807 271.830048,407.079956 269.806122,413.179199   C267.060364,409.832001 264.263794,406.524414 261.601624,403.112061   C260.856659,402.157166 260.507782,400.893280 260.216675,399.391907   C260.638214,399.006866 260.820343,399.001007 261.002441,398.995117  z"/>
<path fill="#63A37C" opacity="1.000000" stroke="none" d=" M395.433838,265.141754   C395.238220,260.311005 394.809174,255.401428 389.260620,253.847153   C386.085510,252.957718 382.208862,252.677902 379.157410,253.677841   C374.371307,255.246216 369.824341,255.319336 365.612823,253.215393   C359.750427,250.286743 354.041168,251.259445 348.158783,252.431641   C346.704437,252.721481 345.209320,252.953293 343.732849,252.953751   C341.056183,252.954590 339.474579,251.801834 340.567352,248.893875   C341.789856,245.640793 340.313782,243.857590 337.281921,242.393158   C337.471771,241.823471 337.901855,241.499481 338.827759,240.952637   C339.527771,240.438873 339.732025,240.147949 339.936249,239.857010   C339.936249,239.857010 339.927551,239.950165 340.216125,239.923035   C340.991364,239.548080 341.478027,239.200256 341.964691,238.852432   C341.964691,238.852432 341.955475,238.929962 342.357727,238.950104   C345.163116,239.263184 348.099182,240.510864 349.806641,239.557678   C351.265137,238.743515 351.313019,235.402496 351.984863,233.179199   C353.119019,232.185654 354.253174,231.192093 355.892456,230.458923   C359.540649,232.120590 362.781525,233.340683 365.800903,234.971024   C369.217743,236.815964 372.255035,237.087570 376.148987,235.766373   C379.129730,234.755066 382.850006,235.905273 386.239563,236.122452   C389.538391,236.333832 393.077393,237.473358 396.089478,236.654709   C407.630524,233.518036 414.181946,239.093933 417.081848,251.218399   C417.051880,251.530518 416.906036,251.772888 416.110504,252.023499   C415.073212,252.463440 414.569641,252.825409 414.066071,253.187347   C407.975067,257.156036 401.884064,261.124756 395.433838,265.141754  z"/>
<path fill="#69A982" opacity="1.000000" stroke="none" d=" M417.433472,251.148773   C414.181946,239.093933 407.630524,233.518036 396.089478,236.654709   C393.077393,237.473358 389.538391,236.333832 386.239563,236.122452   C382.850006,235.905273 379.129730,234.755066 376.148987,235.766373   C372.255035,237.087570 369.217743,236.815964 365.800903,234.971024   C362.781525,233.340683 359.540649,232.120590 356.214874,230.430283   C361.094086,227.183243 366.156006,224.225266 371.526947,221.109009   C373.082001,221.267639 374.711792,221.190475 375.509583,221.967545   C379.638336,225.988953 384.736359,224.631683 386.848694,219.282547   C388.392334,215.373444 390.911804,211.849670 392.996307,208.154144   C393.498474,208.404404 394.000641,208.654663 394.502777,208.904907   C394.278290,211.763824 393.842468,214.626953 393.899475,217.480225   C393.941315,219.575119 394.074402,223.060287 395.133972,223.479095   C398.190338,224.687164 401.747314,225.059891 405.086029,224.968597   C407.257385,224.909210 409.658539,223.848373 411.489136,222.567719   C416.215149,219.261459 420.016388,220.497742 423.695038,224.197586   C426.464661,226.983139 428.256317,226.166824 429.300018,222.569031   C430.152771,219.629715 431.156403,216.357315 435.134521,217.147720   C438.539734,217.824295 441.944489,219.035339 441.489136,223.856903   C441.440399,224.372833 443.605652,225.097870 444.919556,225.966873   C439.306610,232.187057 433.684570,238.341599 427.657196,244.069595   C424.761353,246.821594 421.099854,248.767929 417.433472,251.148773  z"/>
<path fill="#467B61" opacity="1.000000" stroke="none" d=" M228.000916,359.009430   C229.478363,356.833344 230.903061,354.618225 232.466354,352.505646   C232.917435,351.896088 233.712784,351.325043 234.442291,351.170380   C244.427963,349.053284 252.257675,342.168030 261.712311,338.894623   C262.332062,338.680023 262.926300,338.130310 263.521759,338.145813   C275.291748,338.451904 286.817474,334.915375 298.940796,338.035858   C306.649231,340.019989 315.376678,338.080505 323.643555,337.794556   C324.329224,337.770844 325.470123,337.030334 325.580933,336.462921   C326.458466,331.970825 330.219391,330.927704 333.861572,329.145935   C335.310822,330.321594 336.529419,331.783447 337.881409,333.959564   C337.939056,335.812500 337.973480,336.971375 337.768585,338.086273   C336.839447,343.142487 337.937164,344.484833 343.139709,344.402008   C344.104340,344.386688 345.065247,344.135529 346.319092,343.979065   C346.803711,343.945496 346.997131,343.926147 347.190552,343.906799   C347.488403,343.987915 347.727448,344.153839 347.970245,344.995209   C346.457947,349.737335 339.097870,353.309601 334.345306,352.705933   C331.307190,352.320099 328.079987,352.302856 325.095673,352.904602   C321.584106,353.612671 319.161957,352.846863 316.036926,350.901123   C310.895905,347.700195 305.486908,344.709869 298.441986,347.040070   C293.946747,348.526886 288.630127,347.398499 283.708008,347.780518   C281.107483,347.982361 278.558319,348.888062 275.994263,349.510162   C271.443085,350.614410 266.380402,353.580872 262.460327,352.475403   C254.708893,350.289490 249.053009,352.937256 242.942535,356.556305   C238.406296,359.242950 233.519485,361.511810 228.000916,359.009430  z"/>
<path fill="#43795D" opacity="1.000000" stroke="none" d=" M227.764679,359.215027   C233.519485,361.511810 238.406296,359.242950 242.942535,356.556305   C249.053009,352.937256 254.708893,350.289490 262.460327,352.475403   C266.380402,353.580872 271.443085,350.614410 275.994263,349.510162   C278.558319,348.888062 281.107483,347.982361 283.708008,347.780518   C288.630127,347.398499 293.946747,348.526886 298.441986,347.040070   C305.486908,344.709869 310.895905,347.700195 316.036926,350.901123   C319.161957,352.846863 321.584106,353.612671 325.095673,352.904602   C328.079987,352.302856 331.307190,352.320099 334.345306,352.705933   C339.097870,353.309601 346.457947,349.737335 348.065063,345.195557   C350.680206,347.973297 353.263062,351.141449 355.780762,354.781677   C353.958344,360.458405 347.787018,363.515076 342.562317,362.454224   C339.519135,361.836273 336.237427,362.453766 333.065094,362.398499   C326.525391,362.284607 319.817719,362.948181 313.494629,361.697296   C306.863251,360.385437 300.727325,357.203674 293.532196,358.763092   C288.893585,359.768402 283.809418,360.581451 279.270599,359.700226   C273.894958,358.656555 269.548767,360.070587 264.937134,361.989960   C262.032349,363.198914 259.021576,364.177338 256.004242,365.077972   C255.001236,365.377380 253.668579,365.465759 252.761185,365.050598   C245.647232,361.795654 239.136200,364.097260 235.912933,371.150391   C233.032349,368.024780 230.151764,364.899139 227.112106,361.481140   C227.144852,360.599396 227.336655,360.010010 227.764679,359.215027  z"/>
<path fill="#42755C" opacity="1.000000" stroke="none" d=" M235.976349,371.477081   C239.136200,364.097260 245.647232,361.795654 252.761185,365.050598   C253.668579,365.465759 255.001236,365.377380 256.004242,365.077972   C259.021576,364.177338 262.032349,363.198914 264.937134,361.989960   C269.548767,360.070587 273.894958,358.656555 279.270599,359.700226   C283.809418,360.581451 288.893585,359.768402 293.532196,358.763092   C300.727325,357.203674 306.863251,360.385437 313.494629,361.697296   C319.817719,362.948181 326.525391,362.284607 333.065094,362.398499   C336.237427,362.453766 339.519135,361.836273 342.562317,362.454224   C347.787018,363.515076 353.958344,360.458405 355.954193,355.077332   C360.777771,360.033661 365.362793,365.166412 370.146667,370.581848   C365.975220,371.576599 361.597565,372.246887 357.238342,373.021149   C355.486633,373.332306 353.789185,373.942413 352.040833,374.281372   C350.965576,374.489838 349.249603,374.932709 348.833832,374.431091   C346.074738,371.102295 343.579498,371.726318 340.820282,374.347137   C340.406952,374.739746 339.248291,374.606873 338.538727,374.384369   C335.130219,373.315582 331.692902,372.292084 328.387238,370.952789   C323.389679,368.928009 318.575226,368.780731 313.456238,370.751099   C311.638123,371.450897 308.917267,371.245605 307.144745,370.369080   C300.252289,366.960632 293.411285,367.197021 286.016357,368.511353   C282.527283,369.131500 278.258759,367.303833 274.791840,365.646973   C269.870972,363.295227 266.297546,364.949554 262.536591,367.876282   C260.800354,369.227448 258.332520,369.690857 256.722626,371.140991   C253.461685,374.078217 250.559448,377.413635 247.004761,380.557190   C244.776901,379.130280 246.146683,372.722504 240.881058,377.059357   C239.267273,375.307495 237.653503,373.555634 235.976349,371.477081  z"/>
<path fill="#356650" opacity="1.000000" stroke="none" d=" M269.841064,413.173462   C271.830048,407.079956 272.446136,407.433807 278.098297,409.989868   C282.074707,411.788177 287.043060,411.390015 291.567383,411.981232   C293.203918,412.195129 294.877014,412.281433 296.463562,412.694336   C299.583496,413.506287 301.740631,412.595795 302.673431,409.467010   C304.069122,404.785767 306.472839,403.812866 311.206573,405.721619   C318.122284,408.510162 325.433746,409.936279 332.816895,406.950134   C334.014832,406.465637 335.104340,405.450317 336.315552,405.313446   C339.279877,404.978394 343.465088,403.709991 345.052765,405.145966   C349.688446,409.338684 354.737183,407.662018 359.697418,407.826935   C363.048004,407.938324 366.405273,407.848206 369.692596,407.072723   C372.501129,406.700165 375.342834,405.852051 378.111908,406.045197   C386.070557,406.600372 386.059021,406.765839 390.733215,413.108246   C394.073456,417.640594 396.337189,417.932465 405.360016,414.715881   C405.789703,414.493042 405.895844,414.508514 405.947052,414.516632   C403.932983,419.708740 394.680634,423.173157 389.971710,420.618500   C381.011841,415.757599 371.755005,414.555634 361.729767,417.326416   C358.656219,418.175842 354.890228,416.575714 351.452576,416.026703   C349.856476,415.771759 348.303070,415.212921 346.702942,415.026337   C342.287384,414.511414 337.805328,413.474213 333.444916,413.825806   C326.256470,414.405487 319.135986,415.872345 312.000153,417.046051   C306.715698,417.915283 301.476746,419.430664 296.171448,419.680603   C292.308594,419.862579 288.891937,419.236206 287.795929,424.216766   C287.625336,424.992004 285.828796,425.409424 284.401794,425.619141   C284.847260,423.462036 285.947174,421.744995 286.407593,419.870819   C286.716217,418.614532 286.501648,416.855652 285.778290,415.863068   C285.357849,415.286102 283.413818,415.552002 282.253082,415.836884   C279.714081,416.459991 277.237427,417.337067 274.735291,418.110443   C273.900543,417.295471 273.065826,416.480499 272.051361,415.078491   C271.216766,414.029053 270.561890,413.566589 269.907043,413.104126   C269.907043,413.104126 269.875977,413.167755 269.841064,413.173462  z"/>
<path fill="#5D9374" opacity="1.000000" stroke="none" d=" M113.912720,37.535896   C108.979767,39.684288 104.708954,42.857666 98.767670,43.558178   C93.271080,44.206253 88.262939,48.896919 83.006935,51.746853   C81.439865,52.596558 79.800789,53.348026 78.126755,53.958027   C75.408585,54.948505 72.634369,55.785191 69.511948,56.808693   C69.055260,52.712280 68.648422,48.041580 67.940720,43.416924   C67.758621,42.226948 66.629364,41.181915 65.503326,39.595978   C65.040154,34.453602 65.008881,29.785545 64.977608,25.117489   C82.344543,24.675234 98.637474,28.565948 113.912720,37.535896  z"/>
<path fill="#A2BEB4" opacity="1.000000" stroke="none" d=" M170.363129,312.007019   C169.966843,301.607025 169.961105,290.978394 169.911392,279.517303   C169.795410,268.348267 169.723404,258.011658 169.718170,247.252075   C169.729462,231.454666 169.673950,216.080215 169.690247,200.335022   C169.455353,194.980682 169.148651,189.997116 168.907318,184.796127   C168.972702,184.578720 169.031036,184.128418 169.247650,184.015686   C169.775223,183.700089 169.895569,183.416412 169.882996,182.585175   C169.785278,173.400467 169.629822,164.682465 169.607971,155.581604   C169.691223,151.081451 169.640884,146.964157 169.590530,142.846863   C169.736694,137.533112 169.882858,132.219360 170.059219,126.439789   C170.402069,127.333801 170.987366,128.693481 170.988159,130.053497   C171.023239,190.139938 171.007370,250.226395 170.986465,310.312866   C170.986298,310.801392 170.834625,311.289825 170.363129,312.007019  z"/>
<path fill="#295743" opacity="1.000000" stroke="none" d=" M65.199387,325.013214   C69.002884,327.379181 72.904602,329.604675 76.570343,332.167664   C78.538185,333.543549 80.100555,335.499390 81.923264,337.506317   C77.251831,338.870880 72.503029,339.922668 67.260620,340.716919   C66.561821,340.212494 66.307358,340.036957 65.882500,339.747650   C65.583427,339.322723 65.368179,339.123230 65.096519,338.502075   C65.118073,333.697815 65.158730,329.355530 65.199387,325.013214  z"/>
<path fill="#3B6C54" opacity="1.000000" stroke="none" d=" M261.003601,398.598877   C260.820343,399.001007 260.638214,399.006866 260.182953,399.024902   C256.023529,394.939117 252.137253,390.841156 248.105927,386.438599   C251.148193,382.199982 252.293976,382.242371 255.605331,386.694000   C256.709839,385.819733 257.688812,384.568115 258.937347,384.176941   C260.507812,383.684845 262.495117,383.428101 263.904724,384.018921   C264.530426,384.281219 264.561340,386.965942 264.198883,388.381165   C263.346436,391.709381 262.094879,394.935303 261.003601,398.598877  z"/>
<path fill="#578E6F" opacity="1.000000" stroke="none" d=" M146.196518,67.766037   C144.589630,68.366646 143.190155,68.992294 141.769165,69.045807   C139.313354,69.138275 135.704803,69.808044 134.660934,68.532516   C133.268692,66.831299 133.588394,63.491741 133.689301,60.875809   C133.781433,58.486511 134.561569,56.123745 135.068115,53.314690   C139.401535,57.341351 143.705322,61.802605 148.057220,66.615067   C147.534958,67.155373 146.964615,67.344482 146.196518,67.766037  z"/>
<path fill="#A2BEB4" opacity="1.000000" stroke="none" d=" M330.204346,484.374878   C368.967285,483.973785 407.924377,483.956421 446.881500,483.967163   C451.036743,483.968323 455.191925,484.133453 459.611725,484.540588   C430.158478,484.901764 400.440674,484.972961 370.722839,484.975281   C357.281403,484.976318 343.839996,484.840454 330.204346,484.374878  z"/>
<path fill="#2C5B46" opacity="1.000000" stroke="none" d=" M445.032532,458.640320   C443.385529,461.822968 441.559692,464.762085 439.664795,467.656036   C438.712769,469.109924 437.635101,470.481567 436.486298,472.067017   C432.192749,469.266571 432.750793,465.919250 434.038635,462.327545   C434.921753,459.864624 435.427765,457.246338 436.512543,454.886017   C436.932343,453.972626 438.483215,453.579071 439.908203,452.913147   C441.806763,454.711121 443.315948,456.544617 445.032532,458.640320  z"/>
<path fill="#578E6F" opacity="1.000000" stroke="none" d=" M65.142502,324.616211   C65.158730,329.355530 65.118073,333.697815 65.169281,338.723206   C65.432785,339.688690 65.680275,339.864227 66.003624,339.932861   C66.307358,340.036957 66.561821,340.212494 66.856064,340.675873   C63.083801,341.661377 64.049950,338.846375 64.046326,336.888947   C64.011208,317.895935 64.005463,298.902832 64.002663,279.909760   C64.000008,261.916443 64.010902,243.923111 64.301636,225.469635   C64.587433,225.009506 65.029991,225.017151 65.040489,225.482010   C65.109528,230.976898 65.168060,236.006912 65.184265,241.501190   C65.172913,250.323593 65.203903,258.681732 65.189453,267.503662   C65.163193,285.652466 65.182373,303.337524 65.201553,321.022552   C65.162910,322.088104 65.124260,323.153687 65.142502,324.616211  z"/>
<path fill="#69A982" opacity="1.000000" stroke="none" d=" M456.652924,163.964630   C464.285980,166.491028 465.505402,169.954437 462.521027,181.668182   C459.056671,176.164322 452.945404,173.059113 453.917542,165.320099   C453.886169,164.889389 453.918823,164.922318 454.200256,164.920441   C454.982941,164.635773 455.484222,164.352982 455.985504,164.070160   C455.985504,164.070160 456.428162,163.983383 456.652924,163.964630  z"/>
<path fill="#5D9374" opacity="1.000000" stroke="none" d=" M65.029991,225.017151   C65.029991,225.017151 64.587433,225.009506 64.366180,225.004974   C64.092659,190.624893 64.040398,156.249359 64.260628,121.285423   C64.759491,120.484528 64.942436,120.239594 65.081963,119.962219   C65.081963,119.962219 65.549194,119.978920 65.782898,119.989906   C65.709488,127.700127 65.402390,135.399368 65.150589,143.566589   C65.182404,147.067184 65.158905,150.099792 65.126633,154.048401   C65.152321,167.652878 65.186783,180.341324 65.167450,193.493011   C65.153023,202.981125 65.192398,212.006012 65.190460,221.427673   C65.109421,222.888687 65.069710,223.952927 65.029991,225.017151  z"/>
<path fill="#6EB086" opacity="1.000000" stroke="none" d=" M65.061966,119.497612   C64.942436,120.239594 64.759491,120.484528 64.338806,120.818718   C64.161018,89.117104 64.177551,57.293797 64.585846,25.293987   C65.008881,29.785545 65.040154,34.453602 65.118317,39.575916   C65.132805,49.048035 65.100395,58.065895 65.117027,67.552963   C65.131508,77.040268 65.096954,86.058380 65.109070,95.544891   C65.117813,103.686539 65.079887,111.359772 65.061966,119.497612  z"/>
<path fill="#5F9D78" opacity="1.000000" stroke="none" d=" M295.581055,265.935883   C296.838593,267.591614 297.713196,269.293243 298.875336,271.554260   C294.686096,273.124573 291.235413,276.878357 286.036255,273.795685   C284.833099,273.082306 282.965332,273.489868 281.176025,273.142090   C285.698486,270.595612 290.448334,268.288696 295.581055,265.935883  z"/>
<path fill="#376953" opacity="1.000000" stroke="none" d=" M274.844269,418.443085   C277.237427,417.337067 279.714081,416.459991 282.253082,415.836884   C283.413818,415.552002 285.357849,415.286102 285.778290,415.863068   C286.501648,416.855652 286.716217,418.614532 286.407593,419.870819   C285.947174,421.744995 284.847260,423.462036 284.008484,425.621704   C283.681305,426.486206 283.365082,426.975006 283.013000,427.763794   C280.302521,424.967773 277.627899,421.871735 274.844269,418.443085  z"/>
<path fill="#508669" opacity="1.000000" stroke="none" d=" M346.027863,343.993225   C345.065247,344.135529 344.104340,344.386688 343.139709,344.402008   C337.937164,344.484833 336.839447,343.142487 337.768585,338.086273   C337.973480,336.971375 337.939056,335.812500 338.035889,334.248108   C340.624603,336.632660 343.192261,339.442963 345.902100,342.832855   C346.038818,343.606018 346.033325,343.799622 346.027863,343.993225  z"/>
<path fill="#6EB086" opacity="1.000000" stroke="none" d=" M351.641602,233.234161   C351.313019,235.402496 351.265137,238.743515 349.806641,239.557678   C348.099182,240.510864 345.163116,239.263184 342.320709,238.937759   C345.020386,237.033249 348.159363,235.161194 351.641602,233.234161  z"/>
<path fill="#467B61" opacity="1.000000" stroke="none" d=" M240.913712,377.396271   C246.146683,372.722504 244.776901,379.130280 246.746490,380.764404   C246.474426,381.327332 245.956055,381.655396 245.124435,382.035950   C243.522903,380.636719 242.234634,379.184967 240.913712,377.396271  z"/>
<path fill="#2C5B46" opacity="1.000000" stroke="none" d=" M299.000000,443.998779   C299.127533,444.299774 299.319305,444.551910 299.905426,445.085510   C300.439331,445.675629 300.693726,445.868713 300.998779,445.995117   C301.992462,447.773285 302.986145,449.551453 303.980103,451.687744   C302.079987,450.238861 300.179565,448.431915 298.166138,446.034058   C298.368744,444.961700 298.684387,444.480255 299.000000,443.998779  z"/>
<path fill="#356650" opacity="1.000000" stroke="none" d=" M298.978638,443.609497   C298.684387,444.480255 298.368744,444.961700 298.021118,445.740601   C296.628754,444.604828 295.268402,443.171600 293.876587,441.394745   C295.549133,441.774170 297.253174,442.497192 298.978638,443.609497  z"/>
<path fill="#5D9374" opacity="1.000000" stroke="none" d=" M232.564194,295.880371   C231.803299,296.567871 230.698471,297.300873 229.196091,298.042297   C229.939117,297.342407 231.079681,296.634155 232.564194,295.880371  z"/>
<path fill="#DFE0DD" opacity="1.000000" stroke="none" d=" M329.044922,187.431686   C329.270081,188.814789 329.427399,190.620392 329.359375,192.701752   C329.081726,191.269714 329.029419,189.561966 329.044922,187.431686  z"/>
<path fill="#518C6C" opacity="1.000000" stroke="none" d=" M319.912964,310.674744   C319.409576,310.637299 318.973450,310.283661 318.537323,309.930054   C318.876862,309.658112 319.216400,309.386169 319.843353,309.094971   C320.080597,309.503326 320.030426,309.930939 319.912964,310.674744  z"/>
<path fill="#5D9374" opacity="1.000000" stroke="none" d=" M235.632950,295.019592   C235.166992,295.388367 234.358719,295.675781 233.209442,295.931091   C233.675842,295.578705 234.483231,295.258453 235.632950,295.019592  z"/>
<path fill="#376953" opacity="1.000000" stroke="none" d=" M270.025269,413.377136   C270.561890,413.566589 271.216766,414.029053 271.903870,414.824097   C271.338593,414.654541 270.741058,414.152344 270.025269,413.377136  z"/>
<path fill="#DFE0DD" opacity="1.000000" stroke="none" d=" M329.059692,131.380188   C329.264252,131.867966 329.398193,132.723267 329.323792,133.780014   C329.073303,133.236877 329.031158,132.492294 329.059692,131.380188  z"/>
<path fill="#DFE0DD" opacity="1.000000" stroke="none" d=" M329.044800,124.377274   C329.255463,124.862541 329.398315,125.715973 329.335114,126.773415   C329.078369,126.233429 329.027649,125.489426 329.044800,124.377274  z"/>
<path fill="#6EB086" opacity="1.000000" stroke="none" d=" M455.670715,164.005096   C455.484222,164.352982 454.982941,164.635773 454.180725,164.914520   C454.371826,164.587006 454.863861,164.263519 455.670715,164.005096  z"/>
<path fill="#518C6C" opacity="1.000000" stroke="none" d=" M205.649536,307.904236   C205.478516,308.212067 204.989182,308.562012 204.185638,308.932800   C204.358032,308.617859 204.844620,308.282104 205.649536,307.904236  z"/>
<path fill="#69A982" opacity="1.000000" stroke="none" d=" M414.388611,253.137207   C414.569641,252.825409 415.073212,252.463440 415.904846,252.096191   C415.725677,252.422958 415.218445,252.755005 414.388611,253.137207  z"/>
<path fill="#6EB086" opacity="1.000000" stroke="none" d=" M341.653076,238.893890   C341.478027,239.200256 340.991364,239.548080 340.187531,239.885986   C340.360718,239.562515 340.851074,239.248947 341.653076,238.893890  z"/>
<path fill="#DFE0DD" opacity="1.000000" stroke="none" d=" M329.673218,111.927765   C329.865448,112.165680 329.714020,112.449417 329.294189,112.840317   C329.201508,112.662598 329.302765,112.337959 329.673218,111.927765  z"/>
<path fill="#578E6F" opacity="1.000000" stroke="none" d=" M135.032440,52.695999   C134.839645,52.732380 134.560562,52.504543 134.177460,52.023655   C134.364334,51.990993 134.655243,52.211388 135.032440,52.695999  z"/>
<path fill="#589472" opacity="1.000000" stroke="none" d=" M327.289734,305.838318   C327.194214,305.562683 327.411255,305.354492 327.903229,305.127869   C327.924835,305.310913 327.732880,305.576385 327.289734,305.838318  z"/>
<path fill="#DFE0DD" opacity="1.000000" stroke="none" d=" M329.058044,197.252655   C329.469879,197.205536 329.554871,197.465347 329.251984,197.886292   C329.079010,197.821503 329.034698,197.658875 329.058044,197.252655  z"/>
<path fill="#6EB086" opacity="1.000000" stroke="none" d=" M339.663361,239.931351   C339.732025,240.147949 339.527771,240.438873 339.074280,240.837265   C339.013519,240.631714 339.201996,240.318695 339.663361,239.931351  z"/>
<path fill="#43795D" opacity="1.000000" stroke="none" d=" M346.319092,343.979065   C346.033325,343.799622 346.038818,343.606018 346.071045,343.122711   C346.390045,343.027069 346.682343,343.221161 347.082581,343.661011   C346.997131,343.926147 346.803711,343.945496 346.319092,343.979065  z"/>
<path fill="#42755C" opacity="1.000000" stroke="none" d=" M65.221252,193.029785   C65.186783,180.341324 65.152321,167.652878 65.171112,154.502380   C66.148544,155.263611 67.801682,156.447296 67.870598,157.716965   C68.167686,163.190399 67.852135,168.695618 68.096672,174.174240   C68.165672,175.720047 69.379555,177.214767 70.068329,178.732910   C71.242317,177.764557 72.388397,176.759674 73.596954,175.836563   C75.323532,174.517792 77.056877,173.200058 78.866539,172.001450   C79.663246,171.473785 80.909538,171.479935 81.516586,170.834488   C85.389473,166.716507 89.365685,165.745102 94.300659,169.296417   C95.248360,169.978378 97.718628,168.988068 99.276230,168.296005   C103.994789,166.199478 108.551384,163.647430 113.856834,166.711349   C114.608932,167.145691 116.363197,167.234024 116.707138,166.774338   C120.903961,161.165207 127.775894,165.469757 132.649796,162.390808   C133.395325,161.919861 134.972977,162.250458 135.926712,162.708298   C142.218933,165.729065 144.491196,165.360062 149.614487,161.002167   C151.255966,159.605911 153.577393,159.031769 155.522614,157.962967   C157.199646,157.041550 158.864319,156.056839 160.381546,154.899612   C161.403641,154.120010 161.987473,152.476929 163.067032,152.115692   C166.306015,151.031937 167.427368,149.048691 167.121185,145.744781   C167.042709,144.898071 168.162491,143.940308 169.161148,142.940216   C169.640884,146.964157 169.691223,151.081451 169.188782,155.654785   C168.120529,156.696457 167.238419,157.229065 167.144867,157.875748   C165.825958,166.991974 164.022964,175.882919 156.527100,182.085739   C154.646957,182.728058 151.490417,183.553024 151.308014,184.809662   C150.640884,189.406296 148.648804,189.104706 145.593704,187.298004   C142.103851,185.234192 138.859619,185.665817 136.069122,188.532944   C130.062057,194.704926 130.094772,194.736755 122.346489,191.617447   C117.656540,189.729385 116.721985,190.448761 115.881516,195.323227   C115.581223,197.064835 114.138359,199.656906 112.804909,199.943512   C110.411736,200.457901 106.834900,200.445099 105.309380,199.004318   C101.882675,195.768036 99.680054,197.266006 98.261467,200.149368   C96.436584,203.858566 93.966034,203.488907 91.333611,202.022003   C89.696304,201.109604 87.832108,199.546494 87.313210,197.886688   C85.856171,193.226028 83.295212,195.019394 80.792999,196.362640   C79.976387,196.801041 79.554100,197.916321 78.821449,198.578064   C73.562836,203.327713 70.402779,202.532669 68.129234,196.160645   C67.689453,194.928085 66.217216,194.063904 65.221252,193.029785  z"/>
<path fill="#5F9D78" opacity="1.000000" stroke="none" d=" M370.473450,274.516205   C370.456421,274.481476 370.490509,274.550934 370.473450,274.516205  z"/>
<path fill="#30604A" opacity="1.000000" stroke="none" d=" M65.563026,321.030151   C65.182373,303.337524 65.163193,285.652466 65.557915,267.521240   C66.661697,268.693817 67.558815,270.258698 67.996933,271.942963   C68.826057,275.130402 69.498726,277.860046 73.913261,275.718628   C75.561241,274.919189 77.785408,275.176880 79.746635,275.178864   C85.227516,275.184448 90.660400,281.773041 96.259155,275.278839   C96.523247,274.972504 97.825073,275.459686 98.600319,275.710907   C105.605972,277.981445 112.553619,279.820099 119.550529,275.465637   C120.213402,275.053101 122.280388,275.817322 122.923042,276.639221   C125.658447,280.137451 128.489334,279.385284 131.631042,277.423920   C132.705032,276.753448 133.964172,276.096588 135.186371,275.992279   C143.282486,275.301361 149.518860,270.488159 155.815781,266.237823   C158.900696,264.155518 160.794434,260.260315 163.109467,257.099304   C165.368240,254.015121 167.476852,250.820953 169.651398,247.675049   C169.723404,258.011658 169.795410,268.348267 169.824707,279.085876   C168.522293,284.520142 166.961609,289.503296 166.112259,294.604889   C165.576309,297.824097 165.992172,300.473663 161.063416,299.491486   C159.000000,299.080292 156.436707,301.522705 154.016647,302.447845   C152.057480,303.196777 150.002747,303.796875 147.936813,304.144012   C143.903687,304.821564 139.842438,305.370178 135.773239,305.775330   C134.207977,305.931152 131.584000,306.094757 131.165054,305.321503   C129.107498,301.523834 125.810806,301.812469 122.501411,302.043274   C120.199348,302.203857 117.505470,302.074036 115.716904,303.216888   C111.305565,306.035522 108.222450,303.394073 105.024269,301.322754   C99.626335,297.826782 98.039513,298.190002 93.578041,302.306824   C91.804390,303.943451 88.630554,304.350616 86.012566,304.692291   C83.953201,304.961060 81.675484,303.786285 79.671600,304.171844   C78.288315,304.437988 76.697662,306.049561 76.086502,307.447540   C74.306526,311.519043 73.265572,315.934418 71.263847,319.874023   C70.742004,320.901093 67.770767,320.683624 65.563026,321.030151  z"/>
<path fill="#3B6C54" opacity="1.000000" stroke="none" d=" M384.581207,391.012939   C386.357727,395.521729 383.060028,399.107574 378.229889,398.610992   C368.947144,397.656647 359.656616,396.735504 350.348969,396.097839   C348.184296,395.949524 345.931396,396.966187 343.732635,397.502441   C342.932037,397.697754 342.191620,398.202698 341.388550,398.315247   C334.805817,399.238068 328.189270,400.930267 321.634094,400.728546   C316.100983,400.558319 310.591370,398.321777 305.154541,396.717957   C300.328949,395.294464 295.688751,393.405243 291.177399,397.626556   C290.398834,398.355042 288.403076,398.460724 287.277679,398.036591   C274.666687,393.283600 274.682953,393.240479 266.980438,404.980652   C265.282104,403.138580 263.688904,401.410553 262.048462,399.341248   C263.414825,399.260193 264.828430,399.520386 266.242065,399.780548   C265.970703,399.384003 265.699371,398.987488 265.428009,398.590942   C267.847015,395.923096 269.974121,392.889099 272.753510,390.673309   C276.909882,387.359833 283.182465,387.653748 286.632019,382.587952   C287.276337,381.641754 291.611725,381.666870 292.570343,382.739349   C297.113007,387.821808 302.823486,386.268463 307.963867,385.600037   C312.940491,384.952911 316.973083,383.829346 321.481415,387.955505   C327.025635,393.029694 334.485535,391.628235 341.411865,390.898010   C344.366150,390.586548 347.342590,390.419678 350.270081,389.946411   C351.798035,389.699432 354.032593,389.355652 354.587311,388.323975   C357.087524,383.673889 360.076050,385.717438 362.850769,387.479187   C369.497070,391.699097 376.543182,392.953339 384.581207,391.012939  z"/>
<path fill="#356650" opacity="1.000000" stroke="none" d=" M301.378296,444.996582   C301.786530,443.811737 302.573029,442.623444 303.359497,441.435181   C303.822754,442.052643 304.286011,442.670166 304.749237,443.287689   C303.751678,443.856171 302.754150,444.424652 301.378296,444.996582  z"/>
<path fill="#356650" opacity="1.000000" stroke="none" d=" M300.999634,445.746338   C300.693726,445.868713 300.439331,445.675629 300.111023,445.208527   C300.155365,445.000183 300.324310,444.999146 300.746613,444.999054   C301.000000,445.000000 301.000488,445.497559 300.999634,445.746338  z"/>
<path fill="#356650" opacity="1.000000" stroke="none" d=" M169.718170,247.252090   C167.476852,250.820953 165.368240,254.015121 163.109467,257.099304   C160.794434,260.260315 158.900696,264.155518 155.815781,266.237823   C149.518860,270.488159 143.282486,275.301361 135.186371,275.992279   C133.964172,276.096588 132.705032,276.753448 131.631042,277.423920   C128.489334,279.385284 125.658447,280.137451 122.923042,276.639221   C122.280388,275.817322 120.213402,275.053101 119.550529,275.465637   C112.553619,279.820099 105.605972,277.981445 98.600319,275.710907   C97.825073,275.459686 96.523247,274.972504 96.259155,275.278839   C90.660400,281.773041 85.227516,275.184448 79.746635,275.178864   C77.785408,275.176880 75.561241,274.919189 73.913261,275.718628   C69.498726,277.860046 68.826057,275.130402 67.996933,271.942963   C67.558815,270.258698 66.661697,268.693817 65.603348,267.057434   C65.203903,258.681732 65.172913,250.323593 65.524918,241.507538   C66.927902,242.010941 68.436066,242.788040 68.880806,243.966461   C70.538719,248.359390 73.730736,249.743179 77.970345,248.928406   C80.348412,248.471420 82.590752,247.336533 84.920822,246.590042   C86.220612,246.173630 87.720360,245.387558 88.878716,245.699936   C93.283997,246.887863 97.586914,248.455399 102.159271,249.956970   C104.367348,244.908646 108.889366,244.363327 113.402412,244.045731   C116.234161,243.846481 119.694771,243.059082 121.828270,244.313217   C127.410866,247.594849 129.703476,247.804062 134.534393,243.482605   C135.973511,242.195267 137.608658,240.491241 139.326660,240.259766   C147.486221,239.160278 155.855423,239.051544 162.800323,233.314819   C162.991837,232.222748 162.729553,230.226532 163.592926,229.384354   C167.912964,225.170502 166.933090,219.903839 166.992950,214.817764   C167.032150,211.486862 166.743942,208.125320 167.122742,204.837448   C167.290237,203.383667 168.746979,202.078430 169.618439,200.705765   C169.673950,216.080215 169.729462,231.454666 169.718170,247.252090  z"/>
<path fill="#3B6C54" opacity="1.000000" stroke="none" d=" M169.690247,200.335022   C168.746979,202.078430 167.290237,203.383667 167.122742,204.837448   C166.743942,208.125320 167.032150,211.486862 166.992950,214.817764   C166.933090,219.903839 167.912964,225.170502 163.592926,229.384354   C162.729553,230.226532 162.991837,232.222748 162.800323,233.314819   C155.855423,239.051544 147.486221,239.160278 139.326660,240.259766   C137.608658,240.491241 135.973511,242.195267 134.534393,243.482605   C129.703476,247.804062 127.410866,247.594849 121.828270,244.313217   C119.694771,243.059082 116.234161,243.846481 113.402412,244.045731   C108.889366,244.363327 104.367348,244.908646 102.159271,249.956970   C97.586914,248.455399 93.283997,246.887863 88.878716,245.699936   C87.720360,245.387558 86.220612,246.173630 84.920822,246.590042   C82.590752,247.336533 80.348412,248.471420 77.970345,248.928406   C73.730736,249.743179 70.538719,248.359390 68.880806,243.966461   C68.436066,242.788040 66.927902,242.010941 65.567261,241.043274   C65.168060,236.006912 65.109528,230.976898 65.040489,225.482010   C65.069710,223.952927 65.109421,222.888687 65.537071,221.440826   C67.284698,222.886719 68.644386,224.716232 70.204178,226.815002   C71.873947,224.872284 73.161339,221.911072 75.031433,221.480453   C80.095871,220.314270 85.400063,219.911240 90.623436,219.781952   C97.529732,219.610977 104.450844,219.948853 111.362320,220.170120   C112.454376,220.205063 113.754234,220.495926 114.572678,221.150360   C117.918106,223.825378 121.224052,222.500748 123.683624,220.389313   C126.761429,217.747162 128.946442,216.633240 133.620880,217.356613   C137.085434,217.892776 141.854553,214.951721 146.435974,214.294617   C151.973557,213.500381 154.034271,207.587906 157.774307,204.110229   C162.836594,199.403046 165.572617,194.016937 167.053070,187.579193   C167.269806,186.636688 168.227234,185.864517 168.841949,185.013535   C169.148651,189.997116 169.455353,194.980682 169.690247,200.335022  z"/>
<path fill="#3E7158" opacity="1.000000" stroke="none" d=" M168.907318,184.796127   C168.227234,185.864517 167.269806,186.636688 167.053070,187.579193   C165.572617,194.016937 162.836594,199.403046 157.774307,204.110229   C154.034271,207.587906 151.973557,213.500381 146.435974,214.294617   C141.854553,214.951721 137.085434,217.892776 133.620880,217.356613   C128.946442,216.633240 126.761429,217.747162 123.683624,220.389313   C121.224052,222.500748 117.918106,223.825378 114.572678,221.150360   C113.754234,220.495926 112.454376,220.205063 111.362320,220.170120   C104.450844,219.948853 97.529732,219.610977 90.623436,219.781952   C85.400063,219.911240 80.095871,220.314270 75.031433,221.480453   C73.161339,221.911072 71.873947,224.872284 70.204178,226.815002   C68.644386,224.716232 67.284698,222.886719 65.578384,221.044037   C65.192398,212.006012 65.153023,202.981125 65.167450,193.493011   C66.217216,194.063904 67.689453,194.928085 68.129234,196.160645   C70.402779,202.532669 73.562836,203.327713 78.821449,198.578064   C79.554100,197.916321 79.976387,196.801041 80.792999,196.362640   C83.295212,195.019394 85.856171,193.226028 87.313210,197.886688   C87.832108,199.546494 89.696304,201.109604 91.333611,202.022003   C93.966034,203.488907 96.436584,203.858566 98.261467,200.149368   C99.680054,197.266006 101.882675,195.768036 105.309380,199.004318   C106.834900,200.445099 110.411736,200.457901 112.804909,199.943512   C114.138359,199.656906 115.581223,197.064835 115.881516,195.323227   C116.721985,190.448761 117.656540,189.729385 122.346489,191.617447   C130.094772,194.736755 130.062057,194.704926 136.069122,188.532944   C138.859619,185.665817 142.103851,185.234192 145.593704,187.298004   C148.648804,189.104706 150.640884,189.406296 151.308014,184.809662   C151.490417,183.553024 154.646957,182.728058 156.527100,182.085739   C164.022964,175.882919 165.825958,166.991974 167.144867,157.875748   C167.238419,157.229065 168.120529,156.696457 169.055176,156.037643   C169.629822,164.682465 169.785278,173.400467 169.703201,182.725372   C169.253036,183.560684 169.108170,183.826065 169.031036,184.128418   C169.031036,184.128418 168.972702,184.578720 168.907318,184.796127  z"/>
<path fill="#3B6C54" opacity="1.000000" stroke="none" d=" M169.247650,184.015686   C169.108170,183.826065 169.253036,183.560684 169.645477,183.192093   C169.895569,183.416412 169.775223,183.700089 169.247650,184.015686  z"/>
<path fill="#3E7158" opacity="1.000000" stroke="none" d=" M65.882500,339.747650   C65.680275,339.864227 65.432785,339.688690 65.188385,339.185120   C65.368179,339.123230 65.583427,339.322723 65.882500,339.747650  z"/>
</svg>